<?xml version="1.0" encoding="UTF-8" standalone="no"?>
<!DOCTYPE svg PUBLIC "-//W3C//DTD SVG 20010904//EN"
              "http://www.w3.org/TR/2001/REC-SVG-20010904/DTD/svg10.dtd">

<svg xmlns="http://www.w3.org/2000/svg"
     width="10.4154in" height="3.11072in"
     viewBox="0 0 750 224">
  <path id="Selection"
        fill="none" stroke="black" stroke-width="1"
        d="M 24.00,221.27
           C 24.00,221.27 7.00,218.21 7.00,218.21
             4.81,217.70 1.75,217.32 1.06,214.75
             0.50,212.66 2.30,208.11 3.00,206.00
             3.00,206.00 10.78,186.00 10.78,186.00
             19.35,167.85 29.03,151.19 42.28,136.00
             46.16,131.56 50.66,126.16 55.00,122.28
             58.09,119.53 65.94,113.19 67.69,109.91
             67.69,109.91 75.33,81.00 75.33,81.00
             82.18,60.40 91.65,40.50 104.63,23.00
             104.63,23.00 116.72,8.00 116.72,8.00
             118.45,6.02 121.40,2.15 124.00,1.49
             128.17,0.43 133.41,8.13 135.87,11.00
             145.05,21.72 153.92,34.37 160.25,47.00
             174.14,74.72 185.13,102.81 170.03,133.00
             167.58,137.91 163.48,143.92 159.83,148.00
             153.38,155.22 145.21,160.94 137.00,166.00
             149.17,163.72 167.31,150.70 175.83,141.91
             181.75,135.81 187.28,128.07 192.00,121.00
             198.94,124.28 207.61,135.76 212.60,142.00
             228.41,161.77 244.34,191.19 250.00,216.00
             238.90,220.65 218.19,222.72 206.00,223.01
             206.00,223.01 196.00,223.68 196.00,223.68
             196.00,223.68 188.00,223.00 188.00,223.00
             176.17,222.86 164.54,220.97 153.00,218.42
             127.32,212.76 108.59,204.85 94.45,181.00
             87.97,170.06 85.02,154.63 85.00,142.00
             84.99,136.34 86.22,126.44 85.00,122.00
             75.28,146.43 71.12,170.50 83.37,195.00
             88.86,205.98 93.70,209.16 100.00,218.00
             71.06,223.45 53.50,225.49 24.00,221.27 Z
           M 117.34,37.00
           C 112.50,44.12 108.62,50.28 104.75,58.00
             97.63,72.22 97.33,72.96 92.33,88.00
             91.14,91.60 88.78,98.33 89.18,102.00
             89.68,106.50 93.97,109.96 97.00,113.00
             107.43,123.45 112.78,127.65 128.00,126.96
             132.88,126.74 136.71,125.52 141.00,123.20
             144.33,121.40 146.78,119.47 149.38,116.71
             167.44,97.58 153.05,73.29 143.24,54.00
             140.21,48.03 136.42,42.53 132.66,37.00
             130.35,33.62 128.92,30.62 125.00,29.20
             121.08,30.62 119.65,33.62 117.34,37.00 Z
           M 309.00,104.00
           C 309.00,104.00 309.00,111.01 309.00,111.01
             311.62,110.27 314.29,109.52 316.85,111.01
             320.73,113.29 321.05,120.57 317.69,123.40
             315.22,125.48 306.46,124.95 303.00,125.00
             303.00,125.00 303.00,104.00 303.00,104.00
             303.00,104.00 309.00,104.00 309.00,104.00 Z
           M 393.00,104.00
           C 393.00,104.00 393.00,125.00 393.00,125.00
             393.00,125.00 387.00,125.00 387.00,125.00
             387.00,125.00 387.00,104.00 387.00,104.00
             387.00,104.00 393.00,104.00 393.00,104.00 Z
           M 439.00,104.00
           C 439.00,104.00 439.00,113.00 439.00,113.00
             443.67,109.70 444.49,110.02 450.00,110.00
             450.00,110.00 443.00,116.00 443.00,116.00
             443.00,116.00 451.00,125.00 451.00,125.00
             444.67,124.98 444.03,125.22 439.00,121.00
             439.00,121.00 439.00,125.00 439.00,125.00
             439.00,125.00 433.00,125.00 433.00,125.00
             433.00,125.00 433.00,104.00 433.00,104.00
             433.00,104.00 439.00,104.00 439.00,104.00 Z
           M 475.00,104.00
           C 475.00,104.00 475.00,111.00 475.00,111.00
             487.07,107.62 485.00,116.71 485.00,125.00
             485.00,125.00 479.00,125.00 479.00,125.00
             479.00,125.00 479.00,114.00 479.00,114.00
             474.03,116.80 475.00,119.80 475.00,125.00
             475.00,125.00 469.00,125.00 469.00,125.00
             469.00,125.00 469.00,104.00 469.00,104.00
             469.00,104.00 475.00,104.00 475.00,104.00 Z
           M 514.00,104.00
           C 514.00,104.00 514.00,108.00 514.00,108.00
             514.00,108.00 508.00,108.00 508.00,108.00
             508.00,108.00 508.00,104.00 508.00,104.00
             508.00,104.00 514.00,104.00 514.00,104.00 Z
           M 611.00,104.00
           C 611.00,104.00 611.00,125.00 611.00,125.00
             611.00,125.00 605.00,125.00 605.00,125.00
             605.00,125.00 605.00,104.00 605.00,104.00
             605.00,104.00 611.00,104.00 611.00,104.00 Z
           M 267.72,107.43
           C 272.51,111.82 271.87,121.53 264.98,124.26
             251.11,129.76 242.78,113.04 254.10,105.85
             258.32,104.65 264.23,104.22 267.72,107.43 Z
           M 381.00,115.00
           C 381.56,115.57 382.25,115.85 382.98,117.22
             388.11,126.87 370.43,125.00 366.00,125.00
             366.00,125.00 366.00,105.00 366.00,105.00
             373.27,105.00 387.29,102.84 381.00,115.00 Z
           M 563.00,105.00
           C 563.00,105.00 563.00,109.00 563.00,109.00
             563.00,109.00 554.00,109.00 554.00,109.00
             554.00,109.00 554.00,113.00 554.00,113.00
             554.00,113.00 563.00,113.00 563.00,113.00
             563.00,113.00 563.00,117.00 563.00,117.00
             563.00,117.00 554.00,117.00 554.00,117.00
             554.00,117.00 554.00,121.00 554.00,121.00
             554.00,121.00 564.00,121.00 564.00,121.00
             564.00,121.00 564.00,125.00 564.00,125.00
             564.00,125.00 548.00,125.00 548.00,125.00
             548.00,125.00 548.00,105.00 548.00,105.00
             548.00,105.00 563.00,105.00 563.00,105.00 Z
           M 372.00,109.00
           C 372.00,109.00 372.00,113.00 372.00,113.00
             372.00,113.00 377.00,110.00 377.00,110.00
             377.00,110.00 372.00,109.00 372.00,109.00 Z
           M 261.69,119.38
           C 264.54,118.12 265.85,109.33 258.26,110.61
             252.58,114.95 257.21,121.37 261.69,119.38 Z
           M 289.00,112.00
           C 290.97,110.55 292.33,109.72 294.95,110.33
             300.49,111.62 299.00,120.57 299.00,125.00
             299.00,125.00 294.00,125.00 294.00,125.00
             293.98,119.95 294.75,116.85 290.00,114.00
             290.00,114.00 290.00,125.00 290.00,125.00
             290.00,125.00 284.00,125.00 284.00,125.00
             284.00,125.00 283.00,114.00 283.00,114.00
             283.00,114.00 281.00,114.00 281.00,114.00
             281.00,114.00 280.00,125.00 280.00,125.00
             280.00,125.00 274.00,125.00 274.00,125.00
             274.00,125.00 274.00,110.00 274.00,110.00
             279.44,110.09 284.12,109.43 289.00,112.00 Z
           M 335.00,110.00
           C 335.00,110.00 335.00,115.00 335.00,115.00
             328.33,116.12 329.02,119.15 329.00,125.00
             329.00,125.00 323.00,125.00 323.00,125.00
             323.00,125.00 323.00,110.00 323.00,110.00
             323.00,110.00 335.00,110.00 335.00,110.00 Z
           M 347.00,124.86
           C 345.30,124.99 342.64,125.03 341.04,124.86
             335.01,122.82 335.26,115.35 337.74,112.43
             339.68,110.15 343.20,109.83 346.00,110.11
             348.45,110.35 350.47,111.01 351.83,113.23
             352.91,114.99 352.88,117.02 353.00,119.00
             353.00,119.00 342.00,120.00 342.00,120.00
             342.00,120.00 352.00,121.00 352.00,121.00
             352.00,121.00 352.00,124.86 352.00,124.86
             352.00,124.86 347.00,124.86 347.00,124.86 Z
           M 410.70,111.60
           C 414.48,114.70 414.18,122.31 408.94,124.40
             398.65,128.53 390.65,116.74 400.11,110.74
             403.34,109.92 407.89,109.29 410.70,111.60 Z
           M 418.23,123.83
           C 414.06,121.28 414.06,113.72 418.23,111.17
             420.73,109.64 426.02,110.00 429.00,110.00
             429.00,110.00 429.00,114.00 429.00,114.00
             419.21,114.34 419.21,120.66 429.00,121.00
             429.00,121.00 429.00,125.00 429.00,125.00
             426.02,125.00 420.73,125.36 418.23,123.83 Z
           M 454.23,123.83
           C 450.06,121.28 450.06,113.72 454.23,111.17
             456.73,109.64 462.02,110.00 465.00,110.00
             465.00,110.00 465.00,114.00 465.00,114.00
             455.21,114.34 455.21,120.66 465.00,121.00
             465.00,121.00 465.00,125.00 465.00,125.00
             462.02,125.00 456.73,125.36 454.23,123.83 Z
           M 502.26,111.74
           C 504.66,114.14 504.00,121.64 504.00,125.00
             501.73,124.96 492.62,125.03 491.14,124.40
             487.58,122.87 487.36,118.02 490.31,116.02
             491.46,115.25 496.15,114.53 498.00,114.00
             498.00,114.00 489.00,114.00 489.00,114.00
             489.00,114.00 489.00,110.00 489.00,110.00
             492.36,110.00 499.86,109.34 502.26,111.74 Z
           M 514.00,110.00
           C 514.00,110.00 514.00,125.00 514.00,125.00
             514.00,125.00 508.00,125.00 508.00,125.00
             508.00,125.00 508.00,110.00 508.00,110.00
             508.00,110.00 514.00,110.00 514.00,110.00 Z
           M 532.40,111.60
           C 534.69,113.88 534.00,121.75 534.00,125.00
             534.00,125.00 528.00,125.00 528.00,125.00
             528.00,125.00 528.00,114.00 528.00,114.00
             523.03,116.80 524.00,119.80 524.00,125.00
             524.00,125.00 518.00,125.00 518.00,125.00
             518.00,125.00 518.00,110.00 518.00,110.00
             521.23,110.05 530.31,109.51 532.40,111.60 Z
           M 573.00,113.00
           C 573.00,113.00 575.00,113.00 575.00,113.00
             577.34,109.50 579.05,110.05 583.00,110.00
             578.25,118.47 578.70,116.52 583.00,125.00
             578.84,124.95 577.62,125.50 575.00,122.00
             575.00,122.00 573.00,122.00 573.00,122.00
             570.38,125.50 569.16,124.95 565.00,125.00
             569.65,116.80 570.05,118.17 565.00,110.00
             568.95,110.05 570.66,109.50 573.00,113.00 Z
           M 599.69,111.60
           C 603.05,114.43 602.73,121.71 598.85,123.99
             596.29,125.48 593.62,124.73 591.00,123.99
             591.00,123.99 591.00,131.00 591.00,131.00
             591.00,131.00 585.00,131.00 585.00,131.00
             585.00,131.00 585.00,110.00 585.00,110.00
             588.51,110.06 597.22,109.53 599.69,111.60 Z
           M 628.70,111.60
           C 632.48,114.70 632.18,122.31 626.94,124.40
             616.65,128.53 608.65,116.74 618.11,110.74
             621.34,109.92 625.89,109.29 628.70,111.60 Z
           M 646.00,110.00
           C 646.00,110.00 646.00,115.00 646.00,115.00
             639.33,116.12 640.02,119.15 640.00,125.00
             640.00,125.00 634.00,125.00 634.00,125.00
             634.00,125.00 634.00,110.00 634.00,110.00
             634.00,110.00 646.00,110.00 646.00,110.00 Z
           M 658.00,124.86
           C 656.30,124.99 653.64,125.03 652.04,124.86
             646.01,122.82 646.26,115.35 648.74,112.43
             650.68,110.15 654.20,109.83 657.00,110.11
             659.45,110.35 661.47,111.01 662.83,113.23
             663.91,114.99 663.88,117.02 664.00,119.00
             664.00,119.00 653.00,120.00 653.00,120.00
             653.00,120.00 663.00,121.00 663.00,121.00
             663.00,121.00 663.00,124.86 663.00,124.86
             663.00,124.86 658.00,124.86 658.00,124.86 Z
           M 679.00,110.00
           C 679.00,110.00 679.00,115.00 679.00,115.00
             672.33,116.12 673.02,119.15 673.00,125.00
             673.00,125.00 667.00,125.00 667.00,125.00
             667.00,125.00 667.00,110.00 667.00,110.00
             667.00,110.00 679.00,110.00 679.00,110.00 Z
           M 312.45,119.83
           C 314.12,118.76 314.37,115.76 311.17,114.91
             307.38,117.67 310.54,121.06 312.45,119.83 Z
           M 342.00,116.00
           C 342.00,116.00 347.00,115.00 347.00,115.00
             347.00,115.00 342.00,116.00 342.00,116.00 Z
           M 407.00,121.00
           C 407.00,121.00 407.00,114.00 407.00,114.00
             400.67,115.11 400.67,119.89 407.00,121.00 Z
           M 594.45,119.83
           C 596.12,118.76 596.37,115.76 593.17,114.91
             589.38,117.67 592.54,121.06 594.45,119.83 Z
           M 625.00,121.00
           C 625.00,121.00 625.00,114.00 625.00,114.00
             618.67,115.11 618.67,119.89 625.00,121.00 Z
           M 653.00,116.00
           C 653.00,116.00 658.00,115.00 658.00,115.00
             658.00,115.00 653.00,116.00 653.00,116.00 Z
           M 372.00,117.00
           C 372.00,117.00 372.00,121.00 372.00,121.00
             372.00,121.00 377.00,120.00 377.00,120.00
             377.00,120.00 377.00,118.00 377.00,118.00
             377.00,118.00 372.00,117.00 372.00,117.00 Z
           M 494.00,121.00
           C 494.00,121.00 498.00,118.00 498.00,118.00
             498.00,118.00 494.00,121.00 494.00,121.00 Z" />
</svg>
