<?xml version="1.0" encoding="UTF-8" standalone="no"?>
<!DOCTYPE svg PUBLIC "-//W3C//DTD SVG 20010904//EN"
              "http://www.w3.org/TR/2001/REC-SVG-20010904/DTD/svg10.dtd">

<svg xmlns="http://www.w3.org/2000/svg"
     width="10.4154in" height="3.11072in"
     viewBox="0 0 750 224">
  <path id="Selection"
        fill="none" stroke="black" stroke-width="1"
        d="M 24.00,221.27
           C 24.00,221.27 7.00,218.21 7.00,218.21
             4.81,217.70 1.75,217.32 1.06,214.75
             0.50,212.66 2.30,208.11 3.00,206.00
             3.00,206.00 10.78,186.00 10.78,186.00
             19.35,167.85 29.03,151.19 42.28,136.00
             46.16,131.56 50.66,126.16 55.00,122.28
             58.09,119.53 65.94,113.19 67.69,109.91
             67.69,109.91 75.33,81.00 75.33,81.00
             82.18,60.40 91.65,40.50 104.63,23.00
             104.63,23.00 116.72,8.00 116.72,8.00
             118.45,6.02 121.40,2.15 124.00,1.49
             128.17,0.43 133.41,8.13 135.87,11.00
             145.05,21.72 153.92,34.37 160.25,47.00
             174.14,74.72 185.13,102.81 170.03,133.00
             167.58,137.91 163.48,143.92 159.83,148.00
             153.38,155.22 145.21,160.94 137.00,166.00
             149.17,163.72 167.31,150.70 175.83,141.91
             181.75,135.81 187.28,128.07 192.00,121.00
             198.94,124.28 207.61,135.76 212.60,142.00
             228.41,161.77 244.34,191.19 250.00,216.00
             238.90,220.65 218.19,222.72 206.00,223.01
             206.00,223.01 196.00,223.68 196.00,223.68
             196.00,223.68 188.00,223.00 188.00,223.00
             176.17,222.86 164.54,220.97 153.00,218.42
             127.32,212.76 108.59,204.85 94.45,181.00
             87.97,170.06 85.02,154.63 85.00,142.00
             84.99,136.34 86.22,126.44 85.00,122.00
             75.28,146.43 71.12,170.50 83.37,195.00
             88.86,205.98 93.70,209.16 100.00,218.00
             71.06,223.45 53.50,225.49 24.00,221.27 Z
           M 117.34,37.00
           C 112.50,44.12 108.62,50.28 104.75,58.00
             97.63,72.22 97.33,72.96 92.33,88.00
             91.14,91.60 88.78,98.33 89.18,102.00
             89.68,106.50 93.97,109.96 97.00,113.00
             107.43,123.45 112.78,127.65 128.00,126.96
             132.88,126.74 136.71,125.52 141.00,123.20
             144.33,121.40 146.78,119.47 149.38,116.71
             167.44,97.58 153.05,73.29 143.24,54.00
             140.21,48.03 136.42,42.53 132.66,37.00
             130.35,33.62 128.92,30.62 125.00,29.20
             121.08,30.62 119.65,33.62 117.34,37.00 Z
           M 489.00,47.00
           C 489.00,47.00 489.00,76.00 489.00,76.00
             496.86,68.85 499.59,67.87 510.00,68.00
             542.12,68.42 542.12,130.58 510.00,131.00
             499.16,131.14 496.83,129.63 489.00,122.00
             489.00,122.00 489.00,129.00 489.00,129.00
             489.00,129.00 470.00,129.00 470.00,129.00
             470.00,129.00 470.00,47.00 470.00,47.00
             470.00,47.00 489.00,47.00 489.00,47.00 Z
           M 330.96,57.18
           C 347.89,72.76 347.12,110.46 328.00,124.21
             317.67,131.64 308.95,131.14 297.00,131.00
             277.75,130.77 264.38,117.67 261.22,99.00
             260.83,95.17 260.96,89.96 261.22,86.00
             261.10,77.65 263.60,68.78 268.61,62.00
             274.23,54.39 281.97,50.47 291.00,48.46
             304.58,46.58 320.39,47.45 330.96,57.18 Z
           M 287.65,70.02
           C 278.83,82.26 279.97,121.81 307.00,115.61
             317.42,113.22 320.77,100.28 320.99,91.00
             321.21,81.29 318.73,67.02 308.00,63.52
             304.73,62.62 300.36,62.93 297.00,63.52
             292.79,64.75 290.29,66.33 287.65,70.02 Z
           M 385.00,69.36
           C 394.15,65.42 406.14,68.18 411.00,77.00
             418.48,71.72 420.11,68.13 430.00,68.00
             432.77,67.97 436.37,67.87 439.00,68.64
             453.36,72.79 452.00,87.30 452.00,99.00
             452.00,99.00 452.00,129.00 452.00,129.00
             452.00,129.00 433.00,129.00 433.00,129.00
             433.00,129.00 433.00,99.00 433.00,99.00
             432.98,93.98 432.69,85.61 426.96,83.62
             421.65,81.78 417.20,87.60 415.80,92.00
             413.23,100.10 414.00,119.73 414.00,129.00
             414.00,129.00 394.00,129.00 394.00,129.00
             394.00,129.00 394.00,94.00 394.00,94.00
             393.94,90.17 393.73,86.11 389.89,84.03
             384.47,81.09 379.14,87.33 377.65,92.00
             375.39,99.08 376.00,120.54 376.00,129.00
             376.00,129.00 356.00,129.00 356.00,129.00
             356.00,129.00 356.00,70.00 356.00,70.00
             356.00,70.00 376.00,70.00 376.00,70.00
             376.00,70.00 376.00,76.00 376.00,76.00
             378.92,73.25 381.24,70.99 385.00,69.36 Z
           M 591.00,68.00
           C 591.00,68.00 591.00,84.95 591.00,84.95
             586.38,84.39 580.49,83.17 576.00,84.95
             570.09,87.16 567.96,92.26 566.81,98.00
             565.43,104.88 566.00,121.16 566.00,129.00
             566.00,129.00 547.00,129.00 547.00,129.00
             547.00,129.00 547.00,70.00 547.00,70.00
             547.00,70.00 566.00,70.00 566.00,70.00
             566.00,70.00 566.00,77.00 566.00,77.00
             576.24,66.86 577.37,68.00 591.00,68.00 Z
           M 625.00,131.00
           C 619.44,130.93 613.86,129.86 609.00,127.05
             592.60,117.55 590.42,89.52 603.32,76.30
             611.46,67.96 620.33,67.95 631.00,68.00
             642.07,68.05 651.26,72.83 656.34,83.00
             658.96,88.24 659.87,98.06 660.00,104.00
             660.00,104.00 616.00,104.00 616.00,104.00
             616.25,106.33 616.35,107.83 617.45,110.00
             625.72,126.28 648.80,113.53 657.00,112.00
             657.00,112.00 657.00,128.00 657.00,128.00
             638.99,130.43 646.20,131.25 625.00,131.00 Z
           M 616.00,92.00
           C 616.00,92.00 639.00,92.00 639.00,92.00
             637.34,76.47 618.81,77.27 616.00,92.00 Z
           M 492.70,87.11
           C 488.58,92.64 486.65,114.59 500.00,115.89
             517.45,117.59 515.14,89.75 507.89,84.74
             504.87,82.64 501.43,82.92 498.00,83.43
             495.47,84.45 494.44,84.77 492.70,87.11 Z
           M 322.00,152.00
           C 322.00,152.00 322.00,175.00 322.00,175.00
             322.00,175.00 316.00,175.00 316.00,175.00
             316.00,175.00 316.00,152.00 316.00,152.00
             316.00,152.00 322.00,152.00 322.00,152.00 Z
           M 371.00,152.00
           C 371.00,152.00 371.00,163.00 371.00,163.00
             376.03,158.78 376.67,159.02 383.00,159.00
             383.00,159.00 376.00,167.00 376.00,167.00
             376.00,167.00 384.00,175.00 384.00,175.00
             376.83,174.97 376.44,175.00 371.00,170.00
             371.00,170.00 371.00,175.00 371.00,175.00
             371.00,175.00 365.00,175.00 365.00,175.00
             365.00,175.00 365.00,152.00 365.00,152.00
             365.00,152.00 371.00,152.00 371.00,152.00 Z
           M 409.00,152.00
           C 409.00,152.00 409.00,160.00 409.00,160.00
             422.01,156.85 421.00,165.02 421.00,175.00
             421.00,175.00 414.00,175.00 414.00,175.00
             414.00,175.00 414.00,163.00 414.00,163.00
             407.88,165.03 409.00,169.48 409.00,175.00
             409.00,175.00 403.00,175.00 403.00,175.00
             403.00,175.00 403.00,152.00 403.00,152.00
             403.00,152.00 409.00,152.00 409.00,152.00 Z
           M 450.00,152.00
           C 450.00,152.00 450.00,157.00 450.00,157.00
             450.00,157.00 444.00,157.00 444.00,157.00
             444.00,157.00 444.00,152.00 444.00,152.00
             444.00,152.00 450.00,152.00 450.00,152.00 Z
           M 552.00,152.00
           C 552.00,152.00 552.00,175.00 552.00,175.00
             552.00,175.00 546.00,175.00 546.00,175.00
             546.00,175.00 546.00,152.00 546.00,152.00
             546.00,152.00 552.00,152.00 552.00,152.00 Z
           M 308.69,154.17
           C 311.63,156.13 310.78,159.99 311.03,163.00
             311.32,166.50 313.18,171.34 309.57,173.83
             306.99,175.60 296.55,175.00 293.00,175.00
             293.00,175.00 293.00,153.00 293.00,153.00
             296.48,153.00 306.09,152.44 308.69,154.17 Z
           M 501.00,153.00
           C 501.00,153.00 501.00,157.00 501.00,157.00
             501.00,157.00 492.00,157.00 492.00,157.00
             492.00,157.00 492.00,162.00 492.00,162.00
             492.00,162.00 501.00,162.00 501.00,162.00
             501.00,162.00 501.00,166.00 501.00,166.00
             501.00,166.00 492.00,166.00 492.00,166.00
             492.00,166.00 492.00,171.00 492.00,171.00
             492.00,171.00 502.00,171.00 502.00,171.00
             502.00,171.00 502.00,175.00 502.00,175.00
             502.00,175.00 485.00,175.00 485.00,175.00
             485.00,175.00 485.00,153.00 485.00,153.00
             485.00,153.00 501.00,153.00 501.00,153.00 Z
           M 300.00,157.00
           C 300.00,157.00 300.00,162.00 300.00,162.00
             300.00,162.00 305.00,159.00 305.00,159.00
             305.00,159.00 300.00,157.00 300.00,157.00 Z
           M 340.77,160.60
           C 345.43,164.20 344.60,172.19 338.96,174.40
             327.24,179.00 319.48,165.85 329.11,159.74
             332.58,158.86 337.72,158.24 340.77,160.60 Z
           M 350.06,173.98
           C 344.76,171.08 344.76,162.92 350.06,160.02
             352.60,158.63 358.01,159.00 361.00,159.00
             361.00,159.00 361.00,164.00 361.00,164.00
             350.37,162.46 350.37,171.54 361.00,170.00
             361.00,170.00 361.00,175.00 361.00,175.00
             358.01,175.00 352.60,175.37 350.06,173.98 Z
           M 388.06,173.98
           C 382.77,171.08 382.77,162.92 388.06,160.02
             390.60,158.63 396.01,159.00 399.00,159.00
             399.00,159.00 399.00,164.06 399.00,164.06
             397.14,163.73 394.93,163.18 393.16,164.06
             390.10,165.73 390.76,169.26 394.06,170.11
             395.56,170.67 397.49,170.22 399.00,170.11
             399.00,170.11 399.00,175.00 399.00,175.00
             396.01,175.00 390.60,175.37 388.06,173.98 Z
           M 438.40,160.74
           C 440.77,163.06 440.00,171.64 440.00,175.00
             437.56,174.96 427.66,175.06 426.15,174.40
             422.47,172.81 422.15,167.29 425.31,165.17
             426.72,164.23 431.74,163.65 434.00,163.00
             434.00,163.00 424.00,163.00 424.00,163.00
             424.00,163.00 424.00,159.00 424.00,159.00
             427.51,159.00 435.91,158.30 438.40,160.74 Z
           M 450.00,159.00
           C 450.00,159.00 450.00,175.00 450.00,175.00
             450.00,175.00 444.00,175.00 444.00,175.00
             444.00,175.00 444.00,159.00 444.00,159.00
             444.00,159.00 450.00,159.00 450.00,159.00 Z
           M 468.70,160.02
           C 472.61,162.53 472.00,170.88 472.00,175.00
             472.00,175.00 465.00,175.00 465.00,175.00
             465.00,175.00 465.00,163.00 465.00,163.00
             458.88,165.03 460.00,169.48 460.00,175.00
             460.00,175.00 454.00,175.00 454.00,175.00
             454.00,175.00 454.00,159.00 454.00,159.00
             456.98,159.04 466.65,158.71 468.70,160.02 Z
           M 514.00,162.00
           C 517.35,158.70 518.47,159.06 523.00,159.00
             517.58,169.42 518.70,164.81 523.00,175.00
             518.05,174.94 516.80,175.37 514.00,171.00
             510.28,175.12 509.36,174.93 504.00,175.00
             504.00,175.00 508.42,166.58 508.42,166.58
             508.42,166.58 504.00,159.00 504.00,159.00
             509.13,159.07 509.70,158.96 514.00,162.00 Z
           M 540.72,160.60
           C 544.86,163.89 544.53,171.31 539.87,173.99
             537.08,175.58 533.87,174.81 531.00,173.99
             531.00,173.99 531.00,181.00 531.00,181.00
             531.00,181.00 525.00,181.00 525.00,181.00
             525.00,181.00 525.00,159.00 525.00,159.00
             528.80,159.06 538.06,158.47 540.72,160.60 Z
           M 570.77,160.60
           C 575.43,164.20 574.60,172.19 568.96,174.40
             557.24,179.00 549.48,165.85 559.11,159.74
             562.58,158.86 567.72,158.24 570.77,160.60 Z
           M 590.00,159.00
           C 590.00,159.00 590.00,164.00 590.00,164.00
             582.67,165.20 583.02,168.60 583.00,175.00
             583.00,175.00 577.00,175.00 577.00,175.00
             577.00,175.00 577.00,159.00 577.00,159.00
             577.00,159.00 590.00,159.00 590.00,159.00 Z
           M 607.40,173.98
           C 605.57,175.42 589.87,177.49 591.16,166.00
             592.16,157.19 603.58,158.19 606.57,160.74
             609.06,162.85 608.92,166.04 609.00,169.00
             609.00,169.00 597.00,170.00 597.00,170.00
             597.00,170.00 609.00,170.00 609.00,170.00
             608.73,171.53 608.79,172.89 607.40,173.98 Z
           M 625.00,159.00
           C 625.00,159.00 625.00,164.00 625.00,164.00
             617.67,165.20 618.02,168.60 618.00,175.00
             618.00,175.00 612.00,175.00 612.00,175.00
             612.00,175.00 612.00,159.00 612.00,159.00
             612.00,159.00 625.00,159.00 625.00,159.00 Z
           M 334.79,170.27
           C 336.96,169.52 338.40,164.02 333.37,163.72
             329.42,166.92 332.27,171.13 334.79,170.27 Z
           M 534.79,170.27
           C 536.96,169.52 538.40,164.02 533.37,163.72
             529.42,166.92 532.27,171.13 534.79,170.27 Z
           M 564.79,170.27
           C 566.96,169.52 568.40,164.02 563.37,163.72
             559.42,166.92 562.27,171.13 564.79,170.27 Z
           M 597.00,166.00
           C 597.00,166.00 603.00,166.00 603.00,166.00
             600.71,162.56 599.39,162.85 597.00,166.00 Z
           M 300.00,166.00
           C 300.00,166.00 300.00,171.00 300.00,171.00
             300.00,171.00 306.00,168.00 306.00,168.00
             306.00,168.00 300.00,166.00 300.00,166.00 Z
           M 429.00,171.00
           C 432.54,170.38 432.80,170.42 434.00,167.00
             434.00,167.00 429.00,171.00 429.00,171.00 Z" />
</svg>
